HIERARCHY
ROOT hip
{
  OFFSET 0 0 0
  CHANNELS 6 Xposition Yposition Zposition Zrotation Yrotation Xrotation
  JOINT abdomen
  {
    OFFSET 0 20.6881 -0.73152
    CHANNELS 3 Zrotation Xrotation Yrotation
    JOINT chest
    {
      OFFSET 0 11.7043 -0.48768
      CHANNELS 3 Zrotation Xrotation Yrotation
      JOINT neck
      {
        OFFSET 0 22.1894 -2.19456
        CHANNELS 3 Zrotation Xrotation Yrotation
        JOINT head
        {
          OFFSET -0.24384 7.07133 1.2192
          CHANNELS 3 Zrotation Xrotation Yrotation
          JOINT leftEye
          {
            OFFSET 4.14528 8.04674 8.04672
            CHANNELS 3 Zrotation Xrotation Yrotation
            End Site
            {
              OFFSET 1 0 0
            }
          }
          JOINT rightEye
          {
            OFFSET -3.6576 8.04674 8.04672
            CHANNELS 3 Zrotation Xrotation Yrotation
            End Site
            {
              OFFSET 1 0 0
            }
          }
        }
      }
      JOINT rCollar
      {
        OFFSET -2.68224 19.2634 -4.8768
        CHANNELS 3 Zrotation Xrotation Yrotation
        JOINT rShldr
        {
          OFFSET -8.77824 -1.95073 1.46304
          CHANNELS 3 Zrotation Xrotation Yrotation
          JOINT rForeArm
          {
            OFFSET -28.1742 -1.7115 0.48768
            CHANNELS 3 Zrotation Xrotation Yrotation
            JOINT rHand
            {
              OFFSET -22.5879 0.773209 7.07136
              CHANNELS 3 Zrotation Xrotation Yrotation
              JOINT rThumb1
              {
                OFFSET -1.2192 -0.487915 3.41376
                CHANNELS 3 Zrotation Xrotation Yrotation
                JOINT rThumb2
                {
                  OFFSET -3.37035 -0.52449 3.41376
                  CHANNELS 3 Zrotation Xrotation Yrotation
                  End Site
                  {
                    OFFSET -1.78271 -1.18214 1.43049
                  }
                }
              }
              JOINT rIndex1
              {
                OFFSET -7.75947 0.938293 5.60832
                CHANNELS 3 Zrotation Xrotation Yrotation
                JOINT rIndex2
                {
                  OFFSET -2.54057 -0.884171 1.56538
                  CHANNELS 3 Zrotation Xrotation Yrotation
                  End Site
                  {
                    OFFSET -1.62519 -0.234802 1.16502
                  }
                }
              }
              JOINT rMid1
              {
                OFFSET -8.24714 1.18213 3.41376
                CHANNELS 3 Zrotation Xrotation Yrotation
                JOINT rMid2
                {
                  OFFSET -3.10165 -0.590103 1.0647
                  CHANNELS 3 Zrotation Xrotation Yrotation
                  End Site
                  {
                    OFFSET -2.48547 -0.328903 0.83742
                  }
                }
              }
              JOINT rRing1
              {
                OFFSET -8.82822 0.546677 1.51678
                CHANNELS 3 Zrotation Xrotation Yrotation
                JOINT rRing2
                {
                  OFFSET -2.60934 -0.819778 -0.0198488
                  CHANNELS 3 Zrotation Xrotation Yrotation
                  End Site
                  {
                    OFFSET -2.33842 -0.294052 0.168128
                  }
                }
              }
              JOINT rPinky1
              {
                OFFSET -8.27202 -0.0477905 -0.4584
                CHANNELS 3 Zrotation Xrotation Yrotation
                JOINT rPinky2
                {
                  OFFSET -1.82734 -0.647385 -0.700984
                  CHANNELS 3 Zrotation Xrotation Yrotation
                  End Site
                  {
                    OFFSET -1.69225 -0.51767 -0.607171
                  }
                }
              }
            }
          }
        }
      }
      JOINT lCollar
      {
        OFFSET 2.68224 19.2634 -4.8768
        CHANNELS 3 Zrotation Xrotation Yrotation
        JOINT lShldr
        {
          OFFSET 8.77824 -1.95073 1.46304
          CHANNELS 3 Zrotation Xrotation Yrotation
          JOINT lForeArm
          {
            OFFSET 28.1742 -1.7115 0.48768
            CHANNELS 3 Zrotation Xrotation Yrotation
            JOINT lHand
            {
              OFFSET 22.5879 0.773209 7.07136
              CHANNELS 3 Zrotation Xrotation Yrotation
              JOINT lThumb1
              {
                OFFSET 1.2192 -0.487915 3.41376
                CHANNELS 3 Zrotation Xrotation Yrotation
                JOINT lThumb2
                {
                  OFFSET 3.37035 -0.52449 3.41376
                  CHANNELS 3 Zrotation Xrotation Yrotation
                  End Site
                  {
                    OFFSET 1.78271 -1.18214 1.43049
                  }
                }
              }
              JOINT lIndex1
              {
                OFFSET 7.75947 0.938293 5.60832
                CHANNELS 3 Zrotation Xrotation Yrotation
                JOINT lIndex2
                {
                  OFFSET 2.54057 -0.884171 1.56538
                  CHANNELS 3 Zrotation Xrotation Yrotation
                  End Site
                  {
                    OFFSET 1.62519 -0.234802 1.16502
                  }
                }
              }
              JOINT lMid1
              {
                OFFSET 8.24714 1.18213 3.41376
                CHANNELS 3 Zrotation Xrotation Yrotation
                JOINT lMid2
                {
                  OFFSET 3.10165 -0.590103 1.0647
                  CHANNELS 3 Zrotation Xrotation Yrotation
                  End Site
                  {
                    OFFSET 2.48547 -0.328903 0.83742
                  }
                }
              }
              JOINT lRing1
              {
                OFFSET 8.82822 0.546677 1.51678
                CHANNELS 3 Zrotation Xrotation Yrotation
                JOINT lRing2
                {
                  OFFSET 2.60934 -0.819778 -0.0198488
                  CHANNELS 3 Zrotation Xrotation Yrotation
                  End Site
                  {
                    OFFSET 2.33842 -0.294052 0.168128
                  }
                }
              }
              JOINT lPinky1
              {
                OFFSET 8.27202 -0.0477905 -0.4584
                CHANNELS 3 Zrotation Xrotation Yrotation
                JOINT lPinky2
                {
                  OFFSET 1.82734 -0.647385 -0.700984
                  CHANNELS 3 Zrotation Xrotation Yrotation
                  End Site
                  {
                    OFFSET 1.69225 -0.51767 -0.607171
                  }
                }
              }
            }
          }
        }
      }
    }
  }
  JOINT rButtock
  {
    OFFSET -8.77824 4.35084 1.2192
    CHANNELS 3 Zrotation Xrotation Yrotation
    JOINT rThigh
    {
      OFFSET 0 -1.70687 -2.19456
      CHANNELS 3 Zrotation Xrotation Yrotation
      JOINT rShin
      {
        OFFSET 0 -36.8199 0.73152
        CHANNELS 3 Zrotation Xrotation Yrotation
        JOINT rFoot
        {
          OFFSET 0.73152 -45.1104 -5.12064
          CHANNELS 3 Zrotation Xrotation Yrotation
          End Site
          {
            OFFSET -1.1221 -3.69964 12.103
          }
        }
      }
    }
  }
  JOINT lButtock
  {
    OFFSET 8.77824 4.35084 1.2192
    CHANNELS 3 Zrotation Xrotation Yrotation
    JOINT lThigh
    {
      OFFSET 0 -1.70687 -2.19456
      CHANNELS 3 Zrotation Xrotation Yrotation
      JOINT lShin
      {
        OFFSET 0 -36.8199 0.73152
        CHANNELS 3 Zrotation Xrotation Yrotation
        JOINT lFoot
        {
          OFFSET -0.73152 -45.1104 -5.12064
          CHANNELS 3 Zrotation Xrotation Yrotation
          End Site
          {
            OFFSET 1.1221 -3.69964 12.103
          }
        }
      }
    }
  }
}
MOTION
Frames:	5
Frame Time:	0.00833333
44.7323 78.735 -53.942 -370.148 55.6645 -375.719 1.8854 8.56779 1.77156 -4.17665 -1.5221 0.0392477 1.58363 15.8912 -1.26943 6.39291 -28.2936 -0.837824 -0.0 0.0 0.0 -0.0 0.0 0.0 -5.35559e-14 -5.78159e-15 -5.34631e-13 86.2098 18.6242 -7.41877 -11.6084 -5.17783 20.8543 -0.095528 8.77996 1.2438 2.05749e-09 3.63174e-09 -7.18376e-11 3.55462e-09 6.3032e-09 -1.41405e-10 2.0575e-09 3.63174e-09 -7.1838e-11 7.73091 5.47488 0.417314 2.05749e-09 3.63174e-09 -7.18378e-11 2.90554 0.965183 0.102902 2.0575e-09 3.63174e-09 -7.18362e-11 10.2786 0.731801 0.0259123 2.05749e-09 3.63174e-09 -7.18297e-11 2.22167 -0.733487 -0.20892 -5.35738e-14 -5.7972e-15 -5.34892e-13 -78.4136 -23.5146 7.79612 3.33362 -0.984117 -5.77101 0.479511 19.3147 -2.823 8.3269e-10 -1.97762e-09 -1.41496e-09 1.41114e-09 -3.4174e-09 -2.45752e-09 8.32687e-10 -1.97761e-09 -1.41496e-09 -7.73091 5.47488 -0.417314 8.32688e-10 -1.97761e-09 -1.41496e-09 -2.90554 0.965183 -0.102902 8.32676e-10 -1.97761e-09 -1.41496e-09 -10.2786 0.731801 -0.0259123 8.32691e-10 -1.97761e-09 -1.41496e-09 -2.22167 -0.733487 0.20892 -2.03217e-16 0.0 -3.88251e-19 8.17649 -12.8717 4.86189 -3.71604 76.4829 3.71124 -0.295439 3.57517 -2.23698 2.03217e-16 0.0 3.88251e-19 4.80751 -21.8377 11.3625 0.201374 31.652 0.744415 -0.430732 -3.8984 -10.2307
45.2929 78.8664 -53.887 -369.249 55.585 -375.139 0.992861 9.04771 1.65826 -3.97525 -1.67022 -0.0198477 1.55463 15.9092 -1.26759 6.35921 -28.3727 -0.839647 -0.0 0.0 0.0 -0.0 0.0 0.0 1.27212e-14 -5.12739e-14 -1.22354e-13 86.1749 18.5058 -7.32273 -11.671 -5.22059 20.9748 -0.0951762 8.76379 1.24147 7.13383e-11 6.16272e-10 5.85056e-10 1.27836e-10 1.06656e-09 1.0119e-09 7.13484e-11 6.16273e-10 5.85052e-10 7.73091 5.47488 0.417314 7.13378e-11 6.16273e-10 5.85054e-10 2.90554 0.965183 0.102902 7.13478e-11 6.16273e-10 5.85053e-10 10.2786 0.731801 0.0259123 7.13378e-11 6.16273e-10 5.85057e-10 2.22167 -0.733487 -0.20892 1.27529e-14 -5.12919e-14 -1.22612e-13 -78.482 -23.9044 7.50514 3.34083 -0.986861 -5.78363 0.517886 20.0297 -2.93654 2.77102e-10 -7.00729e-10 -1.30281e-09 4.57813e-10 -1.20962e-09 -2.25617e-09 2.77096e-10 -7.00728e-10 -1.30281e-09 -7.73091 5.47488 -0.417314 2.77098e-10 -7.00728e-10 -1.3028e-09 -2.90554 0.965183 -0.102902 2.77088e-10 -7.00729e-10 -1.30281e-09 -10.2786 0.731801 -0.0259123 2.77105e-10 -7.00729e-10 -1.30281e-09 -2.22167 -0.733487 0.20892 -2.03217e-16 0.0 -3.88251e-19 7.26814 -15.1317 4.30852 -5.20955 79.7409 5.21648 -0.273365 2.67499 -1.50045 2.03217e-16 0.0 3.88251e-19 3.86347 -21.0022 11.208 0.177548 31.1107 0.756376 -0.285623 -3.63396 -9.69654
45.8261 78.9905 -53.7999 -368.68 55.4523 -374.815 0.381269 9.47073 1.57709 -3.8428 -1.78395 -0.0619675 1.53972 15.9227 -1.27056 6.29872 -28.4357 -0.858871 -0.0 0.0 0.0 -0.0 0.0 0.0 5.28466e-14 -6.59868e-14 2.00474e-13 86.1363 18.4267 -7.23156 -11.7295 -5.2607 21.0875 -0.0938063 8.703 1.23272 -1.278e-09 -1.46619e-09 9.85787e-10 -2.20055e-09 -2.54898e-09 1.71629e-09 -1.27799e-09 -1.46619e-09 9.85781e-10 7.73091 5.47488 0.417314 -1.278e-09 -1.46619e-09 9.85784e-10 2.90554 0.965183 0.102902 -1.278e-09 -1.46619e-09 9.85782e-10 10.2786 0.731801 0.0259123 -1.278e-09 -1.46619e-09 9.85784e-10 2.22167 -0.733487 -0.20892 5.29105e-14 -6.6005e-14 2.00226e-13 -78.571 -24.2684 7.19987 3.35961 -0.99359 -5.81647 0.551112 20.6122 -3.03006 -1.15227e-10 1.8597e-10 -1.12488e-09 -2.13789e-10 3.23097e-10 -1.94309e-09 -1.15235e-10 1.85969e-10 -1.12487e-09 -7.73091 5.47488 -0.417314 -1.15232e-10 1.85968e-10 -1.12487e-09 -2.90554 0.965183 -0.102902 -1.15241e-10 1.85967e-10 -1.12487e-09 -10.2786 0.731801 -0.0259123 -1.15223e-10 1.85968e-10 -1.12487e-09 -2.22167 -0.733487 0.20892 -2.03217e-16 0.0 -3.88251e-19 6.59225 -17.4027 3.77872 -7.94857 82.8659 7.9646 -0.247502 1.85867 -1.02137 2.03217e-16 0.0 3.88251e-19 3.16927 -20.243 11.1023 0.155906 30.6706 0.760508 -0.16326 -3.45169 -9.19453
46.3345 79.1168 -53.6828 -368.448 55.2409 -374.745 0.160176 9.82605 1.54096 -3.80632 -1.84814 -0.0806042 1.54527 15.9254 -1.28214 6.19933 -28.4841 -0.906431 -0.0 0.0 0.0 -0.0 0.0 0.0 5.85736e-14 -4.8635e-14 4.20964e-13 86.095 18.412 -7.14803 -11.7886 -5.3015 21.2014 -0.0909567 8.57423 1.21419 -1.79596e-09 -2.19812e-09 1.02069e-09 -3.09509e-09 -3.81837e-09 1.77992e-09 -1.79595e-09 -2.19813e-09 1.02068e-09 7.73091 5.47488 0.417314 -1.79596e-09 -2.19812e-09 1.02068e-09 2.90554 0.965183 0.102902 -1.79595e-09 -2.19812e-09 1.02068e-09 10.2786 0.731801 0.0259123 -1.79596e-09 -2.19812e-09 1.02068e-09 2.22167 -0.733487 -0.20892 5.86473e-14 -4.86503e-14 4.20737e-13 -78.6907 -24.5959 6.85813 3.38973 -1.00407 -5.86919 0.575442 21.026 -3.09694 -3.2749e-10 5.11059e-10 -9.04517e-10 -5.75566e-10 8.84413e-10 -1.55832e-09 -3.27499e-10 5.11056e-10 -9.0451e-10 -7.73091 5.47488 -0.417314 -3.27496e-10 5.11055e-10 -9.04507e-10 -2.90554 0.965183 -0.102902 -3.27503e-10 5.11054e-10 -9.04514e-10 -10.2786 0.731801 -0.0259123 -3.27485e-10 5.11056e-10 -9.04513e-10 -2.22167 -0.733487 0.20892 -2.03217e-16 0.0 -3.88251e-19 6.24178 -19.6892 3.26056 -14.4013 85.8166 14.4235 -0.233723 1.14088 -0.848231 2.03217e-16 0.0 3.88251e-19 2.82461 -19.5921 11.0582 0.136567 30.3846 0.755184 -0.0667256 -3.38034 -8.7398
46.8231 79.2467 -53.5437 -368.487 54.9434 -374.868 0.209267 10.1387 1.53371 -3.83484 -1.88329 -0.0836639 1.56553 15.92 -1.30242 6.06773 -28.5129 -0.980863 -0.0 0.0 0.0 -0.0 0.0 0.0 4.79141e-14 -1.39839e-14 6.12586e-13 86.0591 18.4428 -7.08065 -11.8491 -5.34341 21.3179 -0.0871253 8.39486 1.18841 -1.93061e-09 -2.31493e-09 8.36815e-10 -3.32892e-09 -4.01886e-09 1.46133e-09 -1.9306e-09 -2.31493e-09 8.36807e-10 7.73091 5.47488 0.417314 -1.93061e-09 -2.31493e-09 8.36811e-10 2.90554 0.965183 0.102902 -1.9306e-09 -2.31493e-09 8.36811e-10 10.2786 0.731801 0.0259123 -1.93061e-09 -2.31493e-09 8.36815e-10 2.22167 -0.733487 -0.20892 4.79841e-14 -1.39941e-14 6.1239e-13 -78.8353 -24.8865 6.47913 3.42636 -1.01671 -5.93336 0.592667 21.3219 -3.14482 -4.89637e-10 6.1022e-10 -5.82692e-10 -8.50148e-10 1.05484e-09 -9.98386e-10 -4.89645e-10 6.10215e-10 -5.82686e-10 -7.73091 5.47488 -0.417314 -4.89642e-10 6.10214e-10 -5.82684e-10 -2.90554 0.965183 -0.102902 -4.89646e-10 6.10213e-10 -5.82689e-10 -10.2786 0.731801 -0.0259123 -4.89629e-10 6.10216e-10 -5.82689e-10 -2.22167 -0.733487 0.20892 -2.03217e-16 0.0 -3.88251e-19 6.1036 -21.9972 2.72683 -43.5841 88.4137 43.6111 -0.231325 0.471516 -0.832693 2.03217e-16 0.0 3.88251e-19 2.71746 -19.0171 11.0595 0.118105 30.1979 0.742485 0.0130297 -3.38674 -8.32966
